<svg width="367" height="202" viewBox="0 0 367 202" fill="none" xmlns="http://www.w3.org/2000/svg">
<path opacity="0.6" d="M183.29 201.998C284.518 201.998 366.58 176.865 366.58 145.862C366.58 114.859 284.518 89.7266 183.29 89.7266C82.0616 89.7266 0 114.859 0 145.862C0 176.865 82.0616 201.998 183.29 201.998Z" fill="#E8E7E7"/>
<path d="M337.712 74.4256C338.917 74.4951 339.52 74.528 340.724 74.5969C341.217 72.5504 341.462 71.5275 341.951 69.4805C347.002 93.9604 352.158 118.415 357.413 142.85C355.335 145.853 354.292 147.351 352.196 150.348C347.269 125.06 342.443 99.752 337.712 74.4256Z" fill="#868686"/>
<path d="M268.407 156.308C296.794 154.959 325.128 153.013 353.433 150.484C348.533 125.201 343.72 99.9029 339.005 74.5859C316.917 76.4716 294.812 77.9927 272.673 79.1457C271.35 104.871 269.929 130.592 268.407 156.308ZM318.218 78.2601C318.218 77.4857 318.846 76.857 319.62 76.857C320.394 76.857 321.023 77.4857 321.023 78.2601C321.023 79.035 320.395 79.6622 319.62 79.6622C318.846 79.6622 318.218 79.035 318.218 78.2601ZM290.747 80.1577C290.747 79.3828 291.374 78.7551 292.148 78.7551C292.923 78.7551 293.551 79.3828 293.551 80.1577C293.551 80.9327 292.923 81.5598 292.148 81.5598C291.374 81.5598 290.747 80.9327 290.747 80.1577Z" fill="url(#paint0_linear_1307_2236)"/>
<path d="M276.392 74.5888C275.868 76.4039 275.566 77.4473 275.104 79.0384C295.995 77.8488 316.857 76.3397 337.702 74.4979C339.023 74.6739 339.683 74.7606 341.005 74.935C341.376 72.758 341.561 71.6687 341.929 69.4922C320.109 71.5528 298.268 73.2473 276.392 74.5888ZM317.553 73.4133C317.553 72.7763 318.068 72.2593 318.707 72.2593C319.345 72.2593 319.861 72.7763 319.861 73.4133C319.861 74.0515 319.345 74.5689 318.707 74.5689C318.068 74.5689 317.553 74.0515 317.553 73.4133ZM293.875 75.1454C293.875 74.5078 294.392 73.9914 295.03 73.9914C295.668 73.9914 296.185 74.5078 296.185 75.1454C296.185 75.783 295.668 76.3005 295.03 76.3005C294.393 76.3011 293.875 75.7836 293.875 75.1454Z" fill="#707070"/>
<path d="M322.878 63.3117L328.298 68.1373L346.407 64.4089L345.467 59.8491L344.999 57.5681L344.059 53.0078L325.952 56.7368L322.878 63.3117Z" fill="#989898"/>
<path d="M320.394 66.5345C322.846 66.3209 324.828 65.2781 325.334 64.0493L324.566 63.9715C324.163 65.029 322.464 65.9345 320.358 66.1183C317.87 66.3339 315.765 65.464 315.653 64.171C315.54 62.8791 317.465 61.6567 319.951 61.4389C322.075 61.253 323.919 61.865 324.482 62.8525L324.475 62.7517L325.358 62.9156C324.862 61.6196 322.576 60.7914 319.915 61.0232C316.986 61.2786 314.718 62.7188 314.852 64.241C314.984 65.7621 317.466 66.7903 320.394 66.5345Z" fill="#989898"/>
<path d="M294.892 77.1325C294.88 76.9622 294.866 76.7941 294.858 76.6218C294.413 68.1873 298.009 56.9774 305.54 56.3251C313.07 55.674 317.895 66.157 318.401 74.5862C318.412 74.7565 318.406 74.7408 318.412 74.911C318.506 74.9011 318.552 74.8959 318.644 74.887C318.636 74.7173 318.642 74.7345 318.632 74.5633C318.117 65.968 313.197 55.2808 305.519 55.9434C297.84 56.6077 294.171 68.0411 294.625 76.6416C294.634 76.8134 294.647 76.9815 294.659 77.1513C294.752 77.1434 294.798 77.1392 294.892 77.1325Z" stroke="#989898" stroke-width="1.5361" stroke-miterlimit="10"/>
<path d="M290.998 81.6047C290.985 81.4173 290.971 81.2293 290.961 81.0397C290.466 71.846 294.535 59.3948 303.227 58.694C311.919 57.9917 317.4 69.6831 317.976 78.8679C317.989 79.0564 317.987 79.1739 317.995 79.3614C318.107 79.3369 318.163 79.3248 318.274 79.3019C318.265 79.1128 318.256 79.0324 318.243 78.8439C317.654 69.5755 312.192 57.552 303.203 58.2732C294.213 58.9938 290.188 71.7729 290.693 81.0591C290.702 81.2476 290.717 81.434 290.73 81.6215C290.837 81.6147 290.891 81.6136 290.998 81.6047Z" stroke="#D3D3D3" stroke-width="1.4958" stroke-miterlimit="10"/>
<path opacity="0.2" d="M302.785 77.2085L306.539 76.9609L321.671 152.907L316.232 153.312L302.785 77.2085Z" fill="#D3D3D3"/>
<path d="M31.7931 73.2733C30.5874 73.3422 29.9863 73.3762 28.78 73.4441C28.2876 71.3971 28.0427 70.3746 27.5539 68.3281C22.5028 92.807 17.3461 117.263 12.0918 141.697C14.1691 144.7 15.2124 146.2 17.3085 149.195C22.2354 123.908 27.062 98.5997 31.7931 73.2733Z" fill="#868686"/>
<path d="M74.6138 75.9762C74.6253 75.8064 74.6394 75.6388 74.6483 75.4655C75.0927 67.0315 71.4974 55.8216 63.9658 55.1694C56.4357 54.5177 51.6107 65.0002 51.1052 73.43C51.0947 73.6007 51.1005 73.584 51.0927 73.7542C50.9997 73.7453 50.9538 73.7407 50.8613 73.7302C50.8697 73.561 50.8634 73.5788 50.8733 73.4075C51.3893 64.8122 56.3088 54.125 63.9867 54.7871C71.6655 55.4508 75.3355 66.8853 74.8812 75.4853C74.8723 75.6571 74.8592 75.8258 74.8477 75.995C74.7543 75.9877 74.7078 75.984 74.6138 75.9762Z" stroke="#989898" stroke-width="1.5361" stroke-miterlimit="10"/>
<path d="M98.0337 77.8879C75.8953 76.7349 53.7898 75.2138 31.7021 73.3281C26.9883 98.6456 22.1747 123.943 17.2744 149.227C45.5794 151.757 73.9146 153.703 102.301 155.051C100.779 129.335 99.358 103.613 98.0337 77.8879ZM51.0875 78.4044C50.3136 78.4044 49.6849 77.7767 49.6849 77.0028C49.6849 76.2284 50.3131 75.5997 51.0875 75.5997C51.8619 75.5997 52.4901 76.2284 52.4901 77.0028C52.4901 77.7767 51.8619 78.4044 51.0875 78.4044ZM78.559 80.3015C77.7846 80.3015 77.1569 79.6738 77.1569 78.8994C77.1569 78.125 77.7846 77.4973 78.559 77.4973C79.3334 77.4973 79.9611 78.125 79.9611 78.8994C79.9611 79.6738 79.3334 80.3015 78.559 80.3015Z" fill="url(#paint1_linear_1307_2236)"/>
<path d="M27.5762 68.3359C27.9448 70.5124 28.1297 71.6017 28.501 73.7793C29.8226 73.6054 30.4827 73.5182 31.8033 73.3422C52.6482 75.184 73.5109 76.6931 94.4012 77.8827C93.9396 76.2916 93.6373 75.2477 93.1135 73.4325C71.2378 72.091 49.3976 70.3965 27.5762 68.3359ZM50.7986 73.4122C50.1605 73.4122 49.6435 72.8952 49.6435 72.2571C49.6435 71.62 50.1605 71.103 50.7986 71.103C51.4362 71.103 51.9532 71.62 51.9532 72.2571C51.9537 72.8952 51.4367 73.4122 50.7986 73.4122ZM74.4754 75.1443C73.8378 75.1443 73.3208 74.6273 73.3208 73.9892C73.3208 73.3516 73.8378 72.8346 74.4754 72.8346C75.1135 72.8346 75.6305 73.3511 75.6305 73.9892C75.63 74.6273 75.113 75.1443 74.4754 75.1443Z" fill="#707070"/>
<path d="M97.9381 78.0849C96.759 78.0201 95.5809 77.9497 94.4023 77.8828C94.4802 78.1507 94.5616 78.4311 94.6504 78.7366C95.9663 78.4781 96.6232 78.3476 97.9381 78.0849Z" fill="#989898"/>
<path d="M78.5087 80.8182C78.5212 80.6297 78.5353 80.4375 78.5457 80.2453C79.0408 70.9054 74.9718 58.2563 66.2784 57.544C57.5875 56.8317 52.1066 68.709 51.5301 78.0391C51.5175 78.2302 51.5191 78.3492 51.5097 78.5404C51.3985 78.5163 51.3436 78.5033 51.2324 78.4793C51.2413 78.2887 51.2507 78.2067 51.2627 78.014C51.8517 68.5994 57.3139 56.3848 66.3029 57.1174C75.292 57.8495 79.3186 70.8312 78.8131 80.2657C78.8037 80.4579 78.788 80.6464 78.775 80.8365C78.6685 80.8297 78.6147 80.8271 78.5087 80.8182Z" stroke="#D3D3D3" stroke-width="1.5076" stroke-miterlimit="10"/>
<path d="M49.0316 80.7422L42.7104 82.8461L37.3877 98.96L41.4462 100.301L43.4749 100.971L47.5339 102.312L52.8556 86.1965L49.0316 80.7422Z" fill="#989898"/>
<path d="M52.6237 79.1536C53.8613 76.4314 53.5135 74.7254 52.6963 73.8226L52.49 74.9359C53.2075 75.6878 52.8195 76.9578 52.0362 78.9374C51.1929 81.0685 49.5835 82.6492 48.4675 82.2346C47.3521 81.8189 47.1772 79.7672 48.0764 77.6586C49.1485 75.1432 50.2117 74.6429 51.2524 74.5651L51.2158 74.3677L51.4514 73.5254C49.5856 73.457 48.3965 75.162 47.5396 77.4601C46.5955 79.9891 46.8963 82.4356 48.2106 82.9249C49.5245 83.4152 51.5072 81.61 52.6237 79.1536Z" fill="#989898"/>
<path opacity="0.2" d="M67.0087 76.1572L63.451 75.8789L48.4766 151.777L53.768 152.116L67.0087 76.1572Z" fill="#989898"/>
<path d="M74.6361 71.0668C73.1447 71.189 72.3985 71.2495 70.905 71.3702C70.2355 68.8328 69.9024 67.5618 69.2382 65.0234C63.6742 95.7148 57.9363 126.373 52.0371 157.003C54.7217 160.692 56.0711 162.534 58.7828 166.215C64.2199 134.524 69.5081 102.809 74.6361 71.0668Z" fill="#868686"/>
<path d="M127.67 73.0965C127.679 72.8824 127.691 72.6709 127.697 72.4537C127.989 62.0067 123.381 47.9163 113.894 47.4228C104.408 46.9315 98.8626 60.473 98.4683 70.9335C98.4589 71.1503 98.4668 71.1289 98.4621 71.344C98.3467 71.3367 98.2892 71.3325 98.1738 71.3252C98.1785 71.1111 98.1717 71.1304 98.1796 70.9158C98.5958 60.2667 104.234 46.4416 113.91 46.9429C123.585 47.4442 128.296 61.8014 127.986 72.4657C127.98 72.6824 127.968 72.8933 127.959 73.109C127.843 73.1038 127.786 73.1017 127.67 73.0965Z" stroke="#989898" stroke-width="1.9245" stroke-miterlimit="10"/>
<path d="M69.2676 65.0352C69.7851 67.7417 70.0456 69.0936 70.5678 71.7981C72.2023 71.5432 73.0185 71.4158 74.6509 71.1568C100.557 72.82 126.476 73.9636 152.425 74.596C151.788 72.6284 151.375 71.3432 150.653 69.0978C123.492 68.3067 96.372 66.9537 69.2676 65.0352ZM97.9872 71.3923C96.9851 71.3923 96.172 70.5798 96.172 69.5777C96.172 68.5756 96.9845 67.7626 97.9872 67.7626C98.9892 67.7626 99.8018 68.5751 99.8018 69.5777C99.8018 70.5803 98.9892 71.3923 97.9872 71.3923ZM127.768 72.466C126.765 72.466 125.953 71.6534 125.953 70.6508C125.953 69.6487 126.765 68.8357 127.768 68.8357C128.77 68.8357 129.583 69.6482 129.583 70.6508C129.583 71.6534 128.77 72.466 127.768 72.466Z" fill="#707070"/>
<path d="M156.818 74.7018C155.354 74.6705 153.89 74.6298 152.426 74.5938C152.533 74.9248 152.646 75.2731 152.768 75.6517C154.39 75.2731 155.199 75.0836 156.818 74.7018Z" fill="#BA8E67"/>
<path d="M156.93 74.4493C129.435 73.9218 101.974 72.8226 74.526 71.1328C69.4184 102.865 64.1526 134.57 58.7422 166.249C94.2858 168.612 129.855 170.029 165.474 170.516C162.465 138.509 159.617 106.486 156.93 74.4493ZM98.5641 77.9051C97.3793 77.9051 96.4195 76.9453 96.4195 75.7621C96.4195 74.5767 97.3798 73.6164 98.5641 73.6164C99.7485 73.6164 100.709 74.5767 100.709 75.7621C100.709 76.9459 99.749 77.9051 98.5641 77.9051ZM132.801 79.4733C131.616 79.4733 130.657 78.5135 130.657 77.3292C130.657 76.1443 131.616 75.1845 132.801 75.1845C133.986 75.1845 134.945 76.1443 134.945 77.3292C134.945 78.5135 133.985 79.4733 132.801 79.4733Z" fill="url(#paint2_linear_1307_2236)"/>
<path d="M132.684 79.7075C132.693 79.4611 132.706 79.2167 132.712 78.9702C133.015 67.2005 127.882 50.8631 116.837 50.3169C105.791 49.7718 99.6043 65.5483 99.1516 77.3201C99.1417 77.5676 99.1484 77.7221 99.1422 77.9676C99.0038 77.9409 98.9343 77.9263 98.7949 77.8987C98.8001 77.6527 98.8106 77.5472 98.8205 77.3007C99.292 65.3107 105.595 49.2099 116.855 49.7639C128.117 50.319 133.361 66.9728 133.045 78.9838C133.038 79.2308 133.026 79.4741 133.016 79.7206C132.884 79.7159 132.817 79.7133 132.684 79.7075Z" stroke="#D3D3D3" stroke-width="1.911" stroke-miterlimit="10"/>
<path opacity="0.2" d="M114.239 73.288L105.989 72.793L89.2949 168.048L101.534 168.49L114.239 73.288Z" fill="#D3D3D3"/>
<path d="M242.289 73.0965C242.28 72.8824 242.268 72.6709 242.262 72.4537C241.969 62.0067 246.579 47.9163 256.064 47.4228C265.55 46.9315 271.096 60.473 271.49 70.9335C271.499 71.1503 271.493 71.1289 271.497 71.344C271.612 71.3367 271.67 71.3325 271.785 71.3252C271.78 71.1111 271.788 71.1304 271.779 70.9158C271.364 60.2667 265.724 46.4416 256.049 46.9429C246.373 47.4442 241.662 61.8014 241.973 72.4657C241.979 72.6824 241.991 72.8933 242 73.109C242.116 73.1038 242.173 73.1017 242.289 73.0965Z" stroke="#989898" stroke-width="1.9245" stroke-miterlimit="10"/>
<path d="M219.306 69.0978C218.585 71.3432 218.17 72.6284 217.534 74.596C243.483 73.9636 269.402 72.82 295.308 71.1568C296.94 71.4158 297.756 71.5432 299.391 71.7981C299.914 69.0936 300.174 67.7417 300.691 65.0352C273.587 66.9537 246.466 68.3067 219.306 69.0978ZM270.157 69.5782C270.157 68.5761 270.97 67.7631 271.972 67.7631C272.975 67.7631 273.787 68.5756 273.787 69.5782C273.787 70.5803 272.975 71.3929 271.972 71.3929C270.969 71.3923 270.157 70.5803 270.157 69.5782ZM240.376 70.6508C240.376 69.6487 241.188 68.8357 242.192 68.8357C243.193 68.8357 244.006 69.6482 244.006 70.6508C244.006 71.6534 243.193 72.466 242.192 72.466C241.188 72.466 240.376 71.6534 240.376 70.6508Z" fill="#707070"/>
<path d="M213.142 74.7018C214.606 74.6705 216.07 74.6298 217.534 74.5938C217.427 74.9248 217.313 75.2731 217.192 75.6517C215.57 75.2731 214.76 75.0836 213.142 74.7018Z" fill="#BA8E67"/>
<path d="M204.484 170.516C240.105 170.029 275.672 168.612 311.217 166.249C305.807 134.57 300.541 102.865 295.433 71.1328C267.985 72.8221 240.524 73.9213 213.03 74.4493C210.341 106.486 207.493 138.508 204.484 170.516ZM269.249 75.7615C269.249 74.5762 270.21 73.6158 271.394 73.6158C272.579 73.6158 273.538 74.5762 273.538 75.7615C273.538 76.9454 272.578 77.9046 271.394 77.9046C270.21 77.9046 269.249 76.9454 269.249 75.7615ZM235.013 77.3286C235.013 76.1438 235.974 75.184 237.157 75.184C238.343 75.184 239.303 76.1438 239.303 77.3286C239.303 78.513 238.342 79.4728 237.157 79.4728C235.974 79.4728 235.013 78.513 235.013 77.3286Z" fill="url(#paint3_linear_1307_2236)"/>
<path d="M237.275 79.7075C237.266 79.4611 237.253 79.2167 237.246 78.9702C236.944 67.2005 242.077 50.8631 253.121 50.3169C264.168 49.7718 270.354 65.5483 270.808 77.3201C270.817 77.5676 270.81 77.7221 270.817 77.9676C270.955 77.9409 271.025 77.9263 271.164 77.8987C271.158 77.6527 271.148 77.5472 271.138 77.3007C270.667 65.3107 264.363 49.2099 253.104 49.7639C241.842 50.319 236.597 66.9728 236.914 78.9838C236.92 79.2308 236.933 79.4741 236.942 79.7206C237.076 79.7159 237.143 79.7133 237.275 79.7075Z" stroke="#D3D3D3" stroke-width="1.911" stroke-miterlimit="10"/>
<path opacity="0.2" d="M255.72 73.288L263.97 72.793L280.592 167.962L268.425 168.49L255.72 73.288Z" fill="#D3D3D3"/>
<path d="M273.834 80.957L269.154 89.074L278.616 110.986L284.134 108.604L286.894 107.413L292.412 105.029L282.951 83.1179L273.834 80.957Z" fill="#989898"/>
<path d="M275.862 76.3272C274.714 73.3663 272.706 71.2869 271.003 71.1016L271.181 72.0812C272.638 72.2003 274.373 73.9778 275.358 76.524C276.524 79.5282 276.201 82.4551 274.639 83.0587C273.078 83.664 270.868 81.7188 269.706 78.7141C268.709 76.146 268.804 73.6415 269.825 72.5872L269.729 72.1663L269.587 71.4786C268.159 72.5601 267.956 75.6922 269.201 78.9084C270.573 82.4473 273.175 84.7381 275.014 84.0258C276.854 83.3131 277.233 79.8666 275.862 76.3272Z" fill="#989898"/>
<path d="M295.322 71.0668C296.814 71.189 297.56 71.2495 299.053 71.3702C299.723 68.8328 300.056 67.5618 300.72 65.0234C306.284 95.7148 312.022 126.373 317.921 157.003C315.237 160.692 313.887 162.534 311.175 166.215C305.738 134.524 300.451 102.809 295.322 71.0668Z" fill="#868686"/>
<path d="M122.737 59.9215C123.117 58.9163 123.582 56.9606 124.09 54.5445C123.39 54.5215 122.694 54.4969 121.994 54.4766C124.422 55.1899 120.304 59.2149 122.737 59.9215Z" fill="#989898"/>
<path d="M128.536 33.3872C127.43 36.3423 125.579 47.4509 124.089 54.5486C165.02 55.8248 204.765 58.6139 245.738 57.4504C248.203 57.9387 247.439 42.3251 249.907 42.8055C250.843 38.6771 251.31 36.6128 252.236 32.4844C211.006 33.9768 169.782 34.2802 128.536 33.3872ZM163.325 39.8786C162.094 39.8786 161.097 38.8812 161.097 37.6509C161.097 36.4212 162.094 35.4233 163.325 35.4233C164.554 35.4233 165.553 36.4212 165.553 37.6509C165.552 38.8812 164.554 39.8786 163.325 39.8786ZM208.615 39.8786C207.385 39.8786 206.388 38.8812 206.388 37.6509C206.388 36.4212 207.385 35.4233 208.615 35.4233C209.844 35.4233 210.843 36.4212 210.843 37.6509C210.843 38.8812 209.844 39.8786 208.615 39.8786Z" fill="#989898"/>
<path d="M163.482 39.9368C163.48 39.6146 163.474 39.2972 163.477 38.9729C163.627 23.6998 171.07 2.69037 185.728 2.72066C200.387 2.75147 207.781 23.7724 207.882 39.0611C207.885 39.3854 207.875 39.3525 207.871 39.6737C208.047 39.6721 208.135 39.6695 208.31 39.669C208.312 39.3462 208.323 39.3791 208.321 39.0549C208.202 23.4757 200.676 2.03032 185.729 2.00003C170.782 1.96974 163.188 23.3807 163.038 38.9671C163.034 39.2909 163.041 39.6073 163.042 39.9306C163.218 39.9321 163.305 39.9337 163.482 39.9368Z" stroke="#989898" stroke-width="2.9186" stroke-miterlimit="10"/>
<path d="M119.023 41.627C160.513 42.9846 201.992 43.1352 243.49 42.083C249.503 90.7963 255.852 139.465 262.497 188.097C207.739 189.874 152.99 189.646 98.2461 187.445C105.502 138.886 112.431 90.2805 119.023 41.627ZM155.156 43.3359C153.376 43.3361 151.935 44.7794 151.935 46.5586C151.935 48.3384 153.376 49.7811 155.156 49.7812C156.936 49.7812 158.379 48.3387 158.379 46.5586C158.379 44.7791 156.936 43.3359 155.156 43.3359ZM206.965 43.3359C205.185 43.3359 203.742 44.7791 203.742 46.5586C203.742 48.3387 205.185 49.7812 206.965 49.7812C208.744 49.781 210.187 48.3385 210.187 46.5586C210.186 44.7794 208.744 43.3362 206.965 43.3359Z" fill="url(#paint4_linear_1307_2236)" stroke="#CCCCCC"/>
<path d="M205.719 49.0282C206.09 49.1792 206.493 49.2674 206.919 49.2674C207.207 49.2674 207.48 49.2178 207.745 49.1468C207.744 49.1118 207.743 49.0773 207.743 49.0413L207.738 48.7061C207.67 39.0058 205.211 28.4632 201.16 20.5055C196.143 10.6496 189.205 5.42041 181.098 5.38333L181.01 5.38281C172.925 5.38281 165.974 10.5598 160.908 20.353C156.815 28.2679 154.295 38.7729 154.168 48.4517C154.165 48.6773 154.166 48.9003 154.167 49.1233C154.457 49.2094 154.758 49.2674 155.076 49.2674C155.466 49.2674 155.84 49.1953 156.186 49.0669C156.184 48.8726 156.183 48.6794 156.186 48.4841C156.405 32.046 164.446 7.72275 181.008 7.72275L181.086 7.72328C197.713 7.80109 205.616 32.2329 205.722 48.7196C205.723 48.834 205.721 48.9337 205.719 49.0282Z" fill="#D3D3D3"/>
<path d="M243.766 41.4562C246.024 41.7288 247.155 41.8646 249.415 42.1309C250.567 38.2677 251.14 36.334 252.279 32.4688C259.125 79.9345 266.347 127.343 273.908 174.701C270.29 179.32 266.711 183.956 263.054 188.547C256.315 139.567 249.858 90.5184 243.766 41.4562Z" fill="#868686"/>
<defs>
<linearGradient id="paint0_linear_1307_2236" x1="310.92" y1="74.5859" x2="310.92" y2="156.308" gradientUnits="userSpaceOnUse">
<stop stop-color="#D3D3D3"/>
<stop offset="1" stop-color="#AFAFAF"/>
</linearGradient>
<linearGradient id="paint1_linear_1307_2236" x1="59.7875" y1="73.3281" x2="59.7875" y2="155.051" gradientUnits="userSpaceOnUse">
<stop stop-color="#D3D3D3"/>
<stop offset="1" stop-color="#AFAFAF"/>
</linearGradient>
<linearGradient id="paint2_linear_1307_2236" x1="112.108" y1="71.1328" x2="112.108" y2="170.516" gradientUnits="userSpaceOnUse">
<stop stop-color="#D3D3D3"/>
<stop offset="1" stop-color="#AFAFAF"/>
</linearGradient>
<linearGradient id="paint3_linear_1307_2236" x1="257.851" y1="71.1328" x2="257.851" y2="170.516" gradientUnits="userSpaceOnUse">
<stop stop-color="#D3D3D3"/>
<stop offset="1" stop-color="#AFAFAF"/>
</linearGradient>
<linearGradient id="paint4_linear_1307_2236" x1="180.369" y1="41.1133" x2="180.369" y2="189.782" gradientUnits="userSpaceOnUse">
<stop stop-color="#D3D3D3"/>
<stop offset="1" stop-color="#9F9F9F"/>
</linearGradient>
</defs>
</svg>
